<mxfile host="app.diagrams.net" modified="2023-04-06T21:45:31.318Z" agent="Mozilla/5.0 (Windows NT 10.0; Win64; x64) AppleWebKit/537.36 (KHTML, like Gecko) Chrome/111.0.0.0 Safari/537.36" etag="_Ozks-yLgYALgNXFg2jJ" version="21.1.4" type="github">
  <diagram name="Page-1" id="AfyXHSYom_DIMaAgidwJ">
    <mxGraphModel dx="2954" dy="1156" grid="1" gridSize="10" guides="1" tooltips="1" connect="1" arrows="1" fold="1" page="1" pageScale="1" pageWidth="850" pageHeight="1100" math="0" shadow="0">
      <root>
        <mxCell id="0" />
        <mxCell id="1" parent="0" />
        <mxCell id="JxwXi8I0bHfK8lq8Cdui-4" style="edgeStyle=orthogonalEdgeStyle;rounded=0;orthogonalLoop=1;jettySize=auto;html=1;" edge="1" parent="1" source="JxwXi8I0bHfK8lq8Cdui-1" target="JxwXi8I0bHfK8lq8Cdui-3">
          <mxGeometry relative="1" as="geometry" />
        </mxCell>
        <mxCell id="JxwXi8I0bHfK8lq8Cdui-1" value="Product" style="rounded=0;whiteSpace=wrap;html=1;" vertex="1" parent="1">
          <mxGeometry x="50" y="240" width="120" height="60" as="geometry" />
        </mxCell>
        <mxCell id="JxwXi8I0bHfK8lq8Cdui-2" value="Template" style="rounded=0;whiteSpace=wrap;html=1;" vertex="1" parent="1">
          <mxGeometry x="590" y="240" width="120" height="60" as="geometry" />
        </mxCell>
        <mxCell id="JxwXi8I0bHfK8lq8Cdui-3" value="has" style="rhombus;whiteSpace=wrap;html=1;" vertex="1" parent="1">
          <mxGeometry x="345" y="230" width="80" height="80" as="geometry" />
        </mxCell>
      </root>
    </mxGraphModel>
  </diagram>
</mxfile>
